<svg xmlns="http://www.w3.org/2000/svg" viewBox="0 0 223.1 139.99">
  <defs>
    <clipPath id="a">
      <path fill="none" d="M0 0h223.1v139.99H0z" />
    </clipPath>
  </defs>
  <g fill="none" stroke="#ababd0" stroke-linecap="round" stroke-linejoin="round" clip-path="url(#a)">
    <path stroke-width="8.14"
      d="M197.69 38.57c-3.36 3.81-15.19 13.4-15.59 13.88-.96 1.15-16.51 13.46-17.1 13.59-.6.14-2.92 4.4 1.01-11.63 3.93-16.03 4.71-31.38 4.83-31.92 2.06-2.6 14.07-4.17 14.07-4.17 2.18-.12 15.28-.57 17.68 1.72 6.35 6.07 1.29 11.9-4.89 18.53ZM219 23.93c-.15-2.33-.72-4.67-1.22-7-.41-1.87-.96-1.86-2.05-3.36-1.09-1.51-2.01-2.36-3.39-3.61-1.93-1.75-3.73-3.02-6.34-3.62-2.65-.61-5.41-1.47-8.1-1.81-6.63-.84-13.65-.53-20.23.83-3.16.65-6.65 1.23-9.64 2.42-2.12.85-7.55 2.64-8.47 2.6-.74-.04-2.2-.77-2.95-1.08-.96-.4-3.92-1.48-4.43-1.53-.92-.08-1.77-.49-2.7-.52-1.16-.04-8.09-.14-10.36.36-1.65.37-8.9 1.14-11 1.52-2.1.38-12.93 1.47-14.36 1.46-4.83-.04-23.38 1.28-25.08 1.53-3.94.58-18.46 2.25-22 2.63-2.62.28-26.6 4.01-27.34 4.11-1.47.2-7.4 1.76-8.78 2.13-2.15.58-10.98 2.95-13.28 3.71-1.37.45-2.79 1.07-4.1 1.73C9.92 28.09 6.24 30.2 5.27 34c-.42 1.63-.79 3.32-1.11 4.97-.38 1.93 1.23 11.65 2.61 14.75.58 1.31 3.85 10.36 4.07 10.85.28.62 5.81 15.11 6.83 17.14 1.43 2.87 9.4 14.93 11.83 17.85 3.35 4.03 7.14 7.54 10.51 11.57 1 1.2 10.05 8.46 12.22 9.73 1.26.74 24.86 12.01 30.38 13.23 2.71.6 5.48 1.47 8.24 1.75 3.06.31 19.64-.41 21.96-1.27 6.17-2.28 8.98-3.87 10.61-4.58 5.57-2.43 11.97-7.22 14-9.44 2.32-2.53 9.47-11.02 10.75-12.82 1.61-2.26 9.26-17.91 10.3-18.38 1.05-.47 14.22-8.67 18.27-11.48 1.35-.94 2.79-1.78 4.13-2.75 1.26-.92 9.6-8.25 12.65-10.8 1.28-1.07 11.4-11.87 13.62-14.49 2.5-2.94 5.16-5.98 7.16-9.25.8-1.32 3.05-6.43 3.3-7.55.67-3.02 1.66-6.04 1.46-9.11Z" />
    <path stroke-width="8.34" d="M53.94 61.43c1.48-4.63 7.36-4.26 10.44-3.05 2.73 1.07 4.53 2.26 5.32 4.04" />
    <path stroke-width="9.73"
      d="M106.34 57.72c1.3-4.96 9.4-5.97 12.41-5.95 4.39.04 7.25.43 9.85 3.94M59.06 87.43c.04 6.83 5.58 14.33 11.86 17.73 6.54 3.55 12.92 3.86 17.69 3.69 5.89-.22 15.25-2.35 19.31-6.64 4.09-4.33 4.77-13.2 5.51-19.11" />
  </g>
</svg>