<svg xmlns="http://www.w3.org/2000/svg" id="Ebene_1" data-name="Ebene 1" viewBox="0 0 512 512">
  <defs>
    <style>
      .cls-2 {
        stroke-width: 0;
        fill: #fae1d8
      }
    </style>
  </defs>
  <path fill="#fdf1ed" stroke-width="0" d="M0 0h512v512H0z" />
  <path
    d="M396.35 178.59c1.95-.18 3.95-.53 5.55-1.75 1.25-.96 2.11-2.26 3.29-3.28 1.8-1.56 4-2.32 6.09-3.38 5.96-3.05 12-6.15 18.34-8.32 3.04-1.04 6.12-2.14 9.27-2.81 2.17-.47 11.7-2.81 14.38-3.32 3.18-.6 6.34-1.03 9.5-1.8 5.43-1.33 9.49-4.72 13.23-8.75 1.38-1.48 2.67-3.12 3.92-4.7 1.28-1.6 1.25-3.67-1.01-3.99-7.39-1.06-15.71.96-22.55 3.56-7.02 2.66-13.93 5.56-20.62 8.96-3.35 1.7-6.69 3.46-9.96 5.3-3.14 1.77-6.16 3.69-9.43 5.22-2.07.97-4.08 1.94-6.02 3.16-.56.35-2.68 1.31-3.19 1.49-1.06.36-1.9 1.18-2.86 1.72-1.34.74-2.67 1.51-3.93 2.38-1.31.91-2.52 1.93-3.78 2.9-.67.51-2.68 3.23-2.95 3.99-.19.55-.58 1.09-.65 1.67-.06.53.02 1.66.55 1.96.52.29 2.22-.15 2.83-.2m-31.13-41.71-1.53 4.36c.24 1.84.97 3.52 2.2 5.04 5.19 9.44 12.63 17.8 18.9 26.51 1.18 1.65 2.36 3.3 3.53 4.95-6.19 1.74-11.72 5.15-16.66 9.26a75.14 75.14 0 0 0-8.82 8.75 85.501 85.501 0 0 0-6.14 8.27c-1.86 2.61-2.69 5.51-2.5 8.7.25 3.08.6 6.15 1.03 9.21.27 2.3.52 4.6.77 6.9l.27 2.88c-.34 1.04-.1 1.75.73 2.14 1.16-.46 1.92-1.3 2.29-2.54.26-.94.51-1.89.77-2.83.46-1.95.76-3.92.91-5.92.12-2.26-.14-4.52-.07-6.78.08-2.5.6-4.94 1.33-7.33.65-2.12 1.44-4.2 2.99-5.84 1.37-1.46 3.18-2.71 4.9-3.71 2.24-1.29 4.61-2.44 6.9-3.64 2.31-1.21 4.46-2.48 6.62-3.95 2.02-1.38 4.44-2.73 5.07-5.28.19-.76.36-1.62.41-2.41.05-.78-.14-1.55-.12-2.33.01-.58.18-1.09.3-1.65.03-.13.04-.28.05-.42 3.18 4.45 6.39 8.87 9.89 13.09 2.34 2.82 4.27 5.61 6.22 8.76 2.16 3.49 4.16 7.35 6.01 11.21-.71.39-1.16.84-1.59 1.3-3.06 3.07-6.41 4.91-10.14 7.03-3.76 2.13-6.87 4.65-10.13 7.46-3.57 3.09-7.08 6.21-10.41 9.56-5.72 5.75-13.35 11.73-15.31 20.06-.75 3.19-.65 7.04-.18 10.26.32 2.15.83 4.6 2.72 5.97.92.67 2.24 1.05 3.37.7 1.67-.51 2.03-2.91 2.41-4.29 1.29-4.71 1.12-9.65 3.18-14.15 1.61-3.53 4.3-6.72 6.59-9.83 1.06-1.44 2.16-2.94 3.41-4.22 1.21-1.24 5.45-5.49 6.28-6.47 1.08-1.14 2.34-2.05 3.49-3.12.99-.92 5.18-4.04 6.22-4.87 1.42-1.14 2.81-2.46 4.36-3.41 1.15-.71 2.53-1.47 3.39-2.53.97-1.2 1.78-2.89 2.5-4.27.36-.68.91-1.45 1.23-2.21.48 1.04.95 2.07 1.4 3.09 3.36 7.56 6.8 15.15 9.76 22.9h-.06c.03 0 .05.03.08.04.29.75.56 1.5.84 2.26-2.6.3-4.67.18-6.74 1.38a202.1 202.1 0 0 0-3.94 3.17c-1.77 1.22-3.7 1.97-5.38 3.35-4.79 3.94-8.16 9.63-12.2 14.27-3.93 4.51-8.42 9.17-11.23 14.49-2.61 4.93-4.22 10.79-3.86 16.36.36 5.51.83 13 6.74 15.59 1.61.6 3.28.86 4.99.76 3.71-.72 3.92-5.78 4.45-8.64 1.22-6.57 1.5-13.34 3.29-19.81 1.08-3.88 3.02-7.58 4.84-11.16 1.48-2.9 2.85-6.27 4.97-8.76 3.05-3.58 6.82-6.38 9.22-10.46.76-1.29 1.23-2.46 1.56-3.95.15-.65.28-1.21.61-1.79.52-.9 1.04-1.79 1.59-2.64.46-.71.78-1.59 1.1-2.14.58 1.58 1.15 3.16 1.68 4.75 3.73 11.2 5.76 22.86 9.18 34.13 2.49 8.2 6.54 15.91 12.51 22.15 3.08 3.21 6.52 6.25 11 7.17 2.5.52 6.12.79 8.42-.67 3.09-1.97 3.19-4.63 1.91-7.7-1.13-1.75-2.26-3.5-3.38-5.25-3.05-4.05-6.29-7.94-9.72-11.68-5-5.72-10.15-11.32-14.56-17.52-4.14-5.81-8.07-11.92-11.11-18.39-.99-2.12-1.95-4.25-2.89-6.38h.23c2.21.23 4.35.86 6.52 1.27 2.67.5 5.31.99 7.97 1.55 3.17.66 6.16.74 9.14-.69 3.47-1.67 6.99-3.11 10.67-4.3 3.72-1.21 7.71-2.5 11.22-4.22 3.95-1.94 8.24-3.5 11.83-6.08 3.2-2.3 5.91-6.12 8.39-9.16 1.43-1.76 2.47-3.78 3.9-5.53 1.18-1.45 1.98-2.47 2.55-4.36 1.03-3.39 1.1-7.11-2.7-8.64-2.4-.97-7.46-1.75-9.52.57-1.28 1.44-1.64 3.51-2.65 5.13-1.11 1.8-2.44 4.01-3.83 5.58-2.1 2.35-4.88 3.64-7.57 5.14-2.29 1.27-4.44 2.75-6.75 3.98-5.09 2.7-9.73 5.53-14.3 9.12-3.6 2.83-7.88 5.34-11.94 7.46-1.9.99-3.8 1.85-5.99 1.73-2.81-.15-5.56-.78-8.34-1.17-.68-1.55-1.35-3.09-2.03-4.64-1.17-2.67-1.98-5.46-3.1-8.16-1.43-3.42-3.2-6.71-4.91-9.99-.51-.98-1.02-1.97-1.54-2.96.64.58 2.03.1 2.77.02 3.09-.34 6.2-.76 9.18-1.68 8.35-2.57 16.03-7.04 24.05-10.46 6.03-2.57 21.56-9.56 23.51-10.53 1.7-.84 3.39-1.45 5.19-2.08 1.33-.47 2.59-1.1 3.88-1.66 2.21-.97 3.96-2.09 5.84-3.6 1.69-1.37 3.06-2.8 4.48-4.45 2.19-2.54 4.32-4.9 5.42-8.15.33-.97.41-1.2-.33-1.79-.8-.63-2.19-.86-3.14-1.07-1.55-.35-3.09-.52-4.67-.34-1.86.22-3.43 1.04-5.18 1.71-10.48 4.04-21.22 7.81-30.64 14.07-4.16 2.77-8.43 5.42-12.39 8.49-2.62 2.03-5.37 3.56-8.32 5.12-1.08.57-13.12 6.45-14.83 7.81-1.39 1.11-3.31 2.21-4.19 3.82-.37.68-.59 1.49-.77 2.24-.12.52-.32 1.3-.2 1.91-2.7-5.2-5.46-10.52-8.24-15.57-2.19-3.97-4.94-7.15-7.16-11.1-3.47-6.16-7.78-11.64-11.67-17.53-4.48-6.8-9.77-12.93-14.54-19.53-3.4-4.71-6.98-8.6-8.07-14.53M81.43 463.39c-1.13-1.6-2.41-3.18-4.21-3.99-1.41-.64-2.9-.79-4.32-1.34-2.17-.84-3.9-2.4-5.81-3.71-5.48-3.76-11.03-7.56-15.99-12.05-2.37-2.15-4.81-4.31-6.94-6.72-1.47-1.67-8.16-8.83-9.92-10.91-2.08-2.47-4.02-5.01-6.23-7.39-3.8-4.08-8.61-6.04-13.77-7.44-1.9-.51-3.89-.87-5.8-1.24-1.95-.37-3.62.59-2.75 2.7 2.85 6.87 8.66 13.14 14.21 17.86 5.69 4.85 11.52 9.49 17.65 13.72 3.07 2.11 6.18 4.2 9.32 6.18 3.02 1.9 6.1 3.64 8.99 5.76 1.83 1.35 3.63 2.63 5.59 3.76.57.32 2.42 1.71 2.82 2.08.82.75 1.91 1.1 2.83 1.69 1.28.82 2.57 1.62 3.91 2.31 1.4.72 2.83 1.3 4.26 1.94.76.34 3.98.84 4.73.72.55-.09 1.18 0 1.69-.2.46-.19 1.34-.78 1.32-1.37-.02-.59-1.23-1.85-1.59-2.36m-18.38 45.98 4.32-.67c1.38-1.05 2.38-2.45 3-4.2 5.09-8.8 8.18-19.06 12.13-28.46.75-1.78 1.51-3.55 2.26-5.31 4.53 4.56 10.08 7.77 15.91 10.17 3.78 1.53 7.63 2.73 11.56 3.62 3.26.71 6.53 1.21 9.82 1.52 3.06.42 5.84-.19 8.34-1.82 2.38-1.63 4.72-3.33 6.99-5.1 1.74-1.28 3.49-2.55 5.24-3.82.74-.52 1.48-1.03 2.21-1.55 1.02-.18 1.48-.72 1.38-1.61-.95-.79-2.03-1.06-3.22-.82l-2.7.63c-1.82.5-3.58 1.14-5.28 1.92-1.9.93-3.62 2.19-5.5 3.16-2.08 1.07-4.33 1.75-6.65 2.2-2.06.4-4.15.67-6.26.09-1.88-.52-3.81-1.51-5.49-2.54-2.18-1.34-4.3-2.87-6.43-4.3-2.15-1.44-4.26-2.72-6.55-3.91-2.14-1.11-4.46-2.59-6.85-1.97-.71.19-1.51.43-2.17.75-.66.32-1.2.83-1.84 1.17-.48.26-.98.34-1.5.49-.12.04-.25.09-.37.14 2.04-4.78 4.02-9.58 5.71-14.54 1.13-3.31 2.43-6.26 4.02-9.38 1.76-3.46 3.91-6.96 6.13-10.32.67.44 1.27.62 1.86.78 4.04 1.24 7.22 3.29 10.82 5.55 3.62 2.27 7.24 3.81 11.17 5.34 4.31 1.68 8.62 3.27 13.02 4.62 7.56 2.32 16.26 6.18 24.04 4.05 2.98-.81 6.07-2.65 8.46-4.54 1.59-1.26 3.34-2.82 3.5-5.08.08-1.1-.27-2.42-1.12-3.24-1.25-1.21-3.39-.43-4.71-.12-4.48 1.04-8.43 3.45-13.13 3.73-3.68.22-7.64-.64-11.32-1.2-1.71-.26-3.48-.52-5.15-1.02-1.62-.48-7.21-2.2-8.43-2.47-1.47-.41-2.85-1.09-4.29-1.59-1.25-.43-5.89-2.63-7.1-3.15-1.64-.7-3.41-1.3-4.97-2.2-1.15-.67-2.47-1.51-3.77-1.77-1.47-.29-3.25-.21-4.73-.21-.74 0-1.64-.12-2.42-.05.61-.89 1.21-1.77 1.82-2.62 4.48-6.37 8.94-12.81 13.78-18.91 0 .02.02.04.03.06v-.09c.47-.59.95-1.17 1.42-1.76 1.55 2.11 2.49 3.95 4.51 5.19 1.51.67 3.04 1.32 4.56 1.96 1.89.97 3.46 2.3 5.43 3.12 5.61 2.34 11.94 2.64 17.75 4.02 5.64 1.33 11.7 3.08 17.45 3.08 5.33 0 10.92-1.29 15.27-4.15 4.31-2.83 10.18-6.66 9.33-12.95-.32-1.67-.94-3.22-1.88-4.66-2.45-2.87-6.68-.74-9.28.1-5.97 1.95-11.63 4.81-17.8 6.22-3.71.85-7.69.86-11.53.92-3.11.05-6.54.41-9.64-.29-4.45-1-8.62-2.97-13.16-3.18-1.44-.07-2.62.07-4.01.46-.6.17-1.12.31-1.76.29-1-.04-1.98-.08-2.95-.16-.82-.07-1.69.06-2.3.02.99-1.22 2-2.44 3.03-3.63 7.26-8.35 15.75-15.43 23.23-23.55 5.44-5.9 9.7-12.93 11.79-20.94 1.08-4.13 1.82-8.49.33-12.79-.83-2.4-2.43-5.65-4.77-6.97-3.16-1.77-5.38-.64-7.24 1.87-.86 1.78-1.72 3.55-2.58 5.33-1.77 4.49-3.32 9.07-4.65 13.74-2.15 6.93-4.14 13.95-6.98 20.6-2.66 6.23-5.67 12.43-9.42 18.01a327.68 327.68 0 0 1-3.76 5.42c-.04-.07-.08-.14-.11-.2-.92-2.01-1.48-4.15-2.24-6.22-.93-2.54-1.85-5.04-2.74-7.59-1.05-3.04-2.49-5.67-5.15-7.58-3.1-2.24-6.04-4.62-8.86-7.25-2.86-2.66-5.9-5.52-9.07-7.77-3.56-2.53-6.99-5.52-10.89-7.44-3.48-1.71-7.96-2.31-11.68-3.06-2.15-.43-4.32-.41-6.47-.84-1.78-.36-3.01-.58-4.84-.21-3.29.66-6.35 2.3-5.69 6.29.41 2.52 2.32 7.25 5.24 7.96 1.81.45 3.69-.19 5.51-.06 2.03.14 4.49.27 6.47.76 2.97.74 5.41 2.55 7.99 4.19 2.19 1.39 4.47 2.58 6.63 4.02 4.76 3.16 9.39 5.88 14.61 8.18 4.11 1.81 8.31 4.36 12.07 6.91 1.75 1.19 3.41 2.44 4.41 4.38 1.28 2.5 2.15 5.16 3.23 7.74-.92 1.29-1.84 2.58-2.77 3.87-1.59 2.23-3.46 4.21-5.1 6.41-2.08 2.8-3.86 5.83-5.68 8.82-.54.89-1.09 1.78-1.64 2.68.15-.82-.93-1.79-1.38-2.4-1.83-2.52-3.72-5.01-5.97-7.17-6.29-6.04-13.78-10.63-20.6-16-5.12-4.03-18.61-14.26-20.38-15.5-1.54-1.08-2.88-2.27-4.3-3.54-1.05-.94-2.19-1.74-3.3-2.59-1.9-1.46-3.69-2.47-5.87-3.4-1.96-.83-3.82-1.36-5.87-1.84-3.17-.73-6.16-1.49-9.37-.96-.96.16-1.18.2-1.29 1.1-.11.98.4 2.29.7 3.21.49 1.5 1.12 2.9 2.07 4.19 1.11 1.51 2.57 2.49 3.99 3.69 8.55 7.21 17.01 14.76 26.85 20.04 4.35 2.33 8.65 4.81 13.14 6.83 2.97 1.33 5.6 3.01 8.35 4.84 1.01.67 11.84 8.39 13.81 9.24 1.6.69 3.46 1.85 5.22 1.87.74 0 1.51-.17 2.21-.36.49-.14 1.22-.32 1.66-.7-2.89 4.71-5.84 9.53-8.57 14.24-2.14 3.71-3.35 7.54-5.45 11.27-3.28 5.82-5.59 12.05-8.45 18.1-3.3 6.98-5.64 14.36-8.63 21.49-2.13 5.09-3.51 9.97-7.8 13.61m337.82-45.99c1.7-3.06 3.8-5.73 6.22-8.23 1.63-1.68 2.83-3.56 4.08-5.52 1.8-2.8 3.75-5.51 5.49-8.35 1.44-2.35 2.7-4.83 4.29-7.1 1.77-2.52 3.82-4.94 5.72-7.37 1.03-1.32 2.25-2.4 3.34-3.64.67-.76.93-1.69 1.99-1.82.71-.09 1.49.37 2.2.41 1.41.09 2.71-.03 4.11.29 2.46.56 4.32 2.51 3.89 5.25-.52 3.29-2.8 5.84-4.7 8.41-1.61 2.18-3.53 4.22-5.05 6.45-1.64 2.41-2.83 5.28-4.16 7.86-.96 1.85-2.06 3.6-3.27 5.3-2.04 2.88-3.99 5.98-6.28 8.66a24.484 24.484 0 0 0-3.76 4.49c-.98 1.83-1.95 3.66-2.92 5.5-1.73 3.08-3.58 6.17-5.51 9.12-4.19 6.4-9.42 12.08-13.78 18.35-2.1 3.03-4.75 6.94-8.99 6.36-9.66-1.32.69-16.04 3.18-19.63 4.27-6.17 6.62-13.4 11.57-20.32.84-1.86 1.98-3.83 2.34-4.47m55.09-110.79c-.99-1.05-1.95-2.12-2.94-3.18-1.8-1.91-4.55-3.28-7.15-3.73-6.71-1.15-13.66 4.37-15.18 10.74-.47-1.77-.92-2.58-2.47-3.48-3.48-2.01-6.61-3.8-10.45-5.08-3.8-1.26-6.91-.32-9.39 2.84-.57.73-1.23 1.38-1.81 2.11-.37.47-.8 1.58-1.38 1.78-1.21.43-3.33-1.91-4.11-2.59-2.31-2.01-4.5-4.05-7.44-5.09-2.95-1.04-6.96-.88-9.96-.06-3.77 1.04-4.91 4.89-4.24 8.32.89 4.52 2.61 10 4.93 13.99 1.32 2.27 1.9 4.67 2.88 7.09.87 2.17 2.18 3.84 2.82 6.12.59 2.13 1.98 3.94 3.03 5.86.9 1.65 1.25 3.49 2.36 4.97 1.29 1.72 2.31 3.41 3.91 4.9 1.21 1.14 2.59 1.75 3.81 2.94 1.89 1.85 4.21 2.56 6.26 4.21 1.74 1.4 3.78 2.18 5.69 3.29 1.72 1 3 2.87 4.56 4.16 3.31 2.74 7.18 4.66 11.28 5.9 2.59.78 5.36 1.22 7.99 1.86 3.31.81 6.64 1.56 10.04 1.88 6.45.61 12.85.93 19.16-.65 3.35-.84 6.64-1.79 9.86-3.05 3.88-1.51 6.98-4.46 10.41-6.75 3.42-2.28 7.48-5.11 9.87-8.58.68-.99 1.05-2.15 1.68-3.16.4-.65.97-1.1 1.31-1.79.42-.86.68-1.86 1.03-2.76.79-2.03 1.59-4.07 2.03-6.21.59-2.9.35-5.63.39-8.55.06-4.58.72-9.02.19-13.61-.39-3.4-1.43-6.51-3.1-9.51-.98-1.76-1.97-2.89-3.69-3.88-1.21-.69-2.82-1.97-4.19-1.13-1.32.81-1.54 4.64-2.71 4.8-1.59.22-2.12-3.4-2.57-4.28-.92-1.83-2.08-3.42-3.5-4.9-2.82-2.94-6.06-4.35-10.16-4.19-4.28.16-7.99 2.85-10.83 5.96-1.81 1.98-4.2 3.82-5.32 6.28.16-1.14-2.73-3.61-2.9-3.8"
    class="cls-2" />
  <path
    d="M382.18 468.17c.33-5.1 1.14-9.97-.17-15.02-1.22-4.69-3.65-10.59-7.01-14.15-6.4-6.79-14.07-12.09-22.62-15.88-2.69-1.19-6.63-3.3-8.38-.01-2.06 3.86-1.58 9.15-1.45 13.33.4 13.27 4.68 26.09 11.49 37.4 3.12 5.19 7.13 9.84 10.52 14.86 2.18 3.22 5.32 5.17 7.69 8.17.71.91 5.64 6.16 7.12 4.95.99-.8-.13-3.79-.89-4.65 4.1-9.03 3.09-19.59 3.7-29M399 499.38a59.322 59.322 0 0 1 12.1-16.83c6.75-6.5 14.05-10.45 23.02-12.78 8.07-2.1 15.65-2.24 23.86-.96 10.43 1.62 20.78 3.99 30.51 8.18 4.5 1.94 11.52 4.98 12.33 10.62.43 3.01.01 5.8-2.81 7.15-3.89 1.86-7.67 1.32-11.77.75-6.39-.89-12.42-.44-18.84.09-3.56.25-7.12.48-10.68.69-3.83.48-7.63 1.13-11.41 1.93-3.06.27-6.1.7-9.12 1.27-3.17.95-6.34 1.87-9.52 2.77-4.16 1.18-8.25 2.55-12.42 3.66-4.16 1.1-7.74 3.63-12.07 3.87-1.3.07-6.41.45-7.34-1.18-.7-1.22 2.18-4.33 2.7-5.73-1.07.32-.65-.78 1.47-3.5M289.12 55.61c-.54 3.46-1.58 6.69-2.99 9.87-.95 2.14-1.42 4.32-1.92 6.59-.72 3.25-1.61 6.46-2.26 9.73-.54 2.71-.87 5.47-1.57 8.15-.79 2.98-1.88 5.96-2.82 8.89-.51 1.59-1.28 3.03-1.88 4.58-.36.95-.29 1.91-1.24 2.4-.64.33-1.53.17-2.21.37-1.35.4-2.53.96-3.95 1.15-2.5.33-4.93-.86-5.47-3.58-.65-3.26.61-6.45 1.51-9.51.76-2.6 1.85-5.18 2.51-7.8.71-2.83.83-5.93 1.19-8.82.26-2.07.69-4.09 1.23-6.1.92-3.41 1.67-6.99 2.9-10.3.88-1.76 1.54-3.6 1.97-5.51l.84-6.17c.56-3.48 1.22-7.02 2.02-10.46 1.71-7.45 4.66-14.6 6.59-21.99.93-3.57 2.05-8.15 6.23-9.08 9.52-2.1 4.9 15.29 3.81 19.51-1.87 7.27-1.58 14.86-3.83 23.07-.14 2.04-.53 4.28-.65 5.01m-13.38 123.01c1.29.65 2.57 1.32 3.86 1.96 2.35 1.17 5.4 1.51 8 1.03 6.7-1.24 11.31-8.83 10.53-15.33 1.05 1.5 1.75 2.1 3.52 2.41 3.96.68 7.52 1.28 11.56 1.15 4-.13 6.6-2.09 7.83-5.91.29-.88.68-1.73.97-2.61.18-.57.21-1.76.68-2.14.99-.82 3.78.64 4.76 1.01 2.86 1.09 5.62 2.24 8.74 2.2 3.13-.04 6.83-1.58 9.37-3.39 3.18-2.28 2.92-6.29 1.1-9.27-2.4-3.93-5.91-8.48-9.46-11.42-2.02-1.67-3.4-3.72-5.16-5.66-1.57-1.73-3.38-2.85-4.76-4.77-1.29-1.79-3.22-3.01-4.87-4.44-1.42-1.24-2.38-2.84-3.93-3.85-1.81-1.17-3.35-2.4-5.36-3.25-1.53-.65-3.04-.74-4.59-1.44-2.41-1.08-4.83-.95-7.33-1.79-2.12-.71-4.3-.73-6.48-1.12-1.96-.35-3.81-1.66-5.72-2.33-4.06-1.42-8.35-1.89-12.63-1.63-2.7.16-5.45.71-8.14 1.02-3.38.39-6.77.83-10.07 1.71-6.26 1.66-12.38 3.57-17.75 7.23-2.86 1.94-5.61 3.98-8.19 6.27-3.12 2.76-5.01 6.6-7.43 9.93-2.42 3.32-5.26 7.38-6.3 11.46-.3 1.17-.24 2.38-.48 3.55-.15.75-.53 1.37-.61 2.13-.1.95 0 1.98-.01 2.94-.03 2.18-.08 4.37.25 6.53.45 2.93 1.62 5.4 2.59 8.16 1.53 4.32 2.44 8.71 4.53 12.83 1.55 3.06 3.59 5.61 6.2 7.85 1.53 1.31 2.85 2.03 4.8 2.36 1.37.23 3.33.87 4.32-.39.96-1.22-.16-4.88.89-5.44 1.41-.75 3.16 2.45 3.89 3.13 1.5 1.4 3.13 2.49 4.98 3.39 3.66 1.78 7.19 1.99 10.98.42 3.96-1.63 6.51-5.44 8.1-9.34 1.02-2.49 2.62-5.03 2.82-7.73.25 1.13 3.81 2.45 4.03 2.56"
    class="cls-2" />
  <path
    d="M304.95 44.64c1.45 4.9 2.37 9.75 5.35 14.03 2.77 3.98 7.09 8.68 11.47 10.85 8.35 4.16 17.39 6.48 26.72 7.08 2.93.19 7.36.81 7.87-2.89.59-4.33-1.68-9.13-3.25-13.01-4.96-12.32-13.42-22.86-23.71-31.12-4.73-3.79-10.09-6.77-15.01-10.3-3.15-2.26-6.78-3.01-10.04-5.01-.98-.6-7.42-3.83-8.39-2.19-.65 1.1 1.44 3.51 2.45 4.05-.73 9.89 3.88 19.45 6.56 28.49m-26.6-23.44a59.071 59.071 0 0 1-5.54 19.97c-4.09 8.44-9.57 14.66-17.18 19.95-6.85 4.76-13.91 7.51-22.06 9.15-10.35 2.09-20.88 3.45-31.46 2.88-4.9-.26-12.53-.69-15.24-5.7-1.44-2.67-2.02-5.44.17-7.68 3-3.09 6.74-3.89 10.79-4.77 6.3-1.37 11.81-3.88 17.65-6.6 3.25-1.47 6.51-2.92 9.78-4.34 3.43-1.78 6.77-3.7 10.04-5.76 2.78-1.32 5.49-2.77 8.12-4.35 2.64-1.99 5.3-3.95 7.97-5.9 3.49-2.55 6.86-5.25 10.39-7.73 3.53-2.47 6.01-6.09 9.99-7.8 1.19-.51 5.86-2.64 7.29-1.43 1.07.9-.55 4.82-.55 6.31.89-.67.88.5-.17 3.79M95.75 67.87c9.32-7.94 22.14-10.99 33.92-12.98 13.44-2.27 31.76-3.49 40.2-1.62-.33 1.17-2.29 3.39-3.96 3.92-3.45 2.55-7 4.97-10.65 7.24-8.93 5.37-18.32 10.33-27.73 14.8-7.78 3.7-15.65 7.44-23.78 10.3-2.19.77-5.17 1.39-7.02 2.89.31.9.88 1.15 1.72 1.53 4.1 1.85 9.68 1.59 14.02 2.06 5.86.64 11.75 1.42 17.56 2.43 9.48 1.66 20 3.29 28.88 7.08 5.27 2.25 9.84 5.73 14.7 8.69 4.81 2.93 8.62 6.29 12.81 10.03 4.39 3.93 8.64 7.56 12.51 12.02.81.93 2.77 2.46 2.29 3.94-2.56-.36-5.54-.1-7.99-.11-10.56-.03-21.11-.85-31.64-1.46l-11.2-.69c-6.33-.6-12.43-2.12-18.29-4.56-6.43-2.2-13.06-3.99-19.43-6.35-5.69-2.11-10.88-5.05-16.19-7.95-3.9-2.13-7.83-4.12-11.45-6.73-2.04-1.47-4.62-3.32-5.49-5.78.11.45.04 1.08.16 1.64.6 2.66 2.62 5.93 3.7 8.28 1.46 3.18 2.51 6.44 3.89 9.65 1.74 4.05 3.44 8.1 3.71 12.56.13 2.23.37 4.09.74 6.28.24 1.45.54 3.5-.24 4.88-2.91.39-7.56-2.14-10.02-3.25-4.52-2.04-7.46-4.76-10.37-8.72-4.89-6.64-6.76-15.34-8.45-23.24-.62-2.88-2.55-5.08-5.24-6.31-2.8-1.27-7.19-.16-9.99.48-7.17 1.63-14.23 3.76-21.13 6.29-2.69.98-4.92 2.24-7.81 1.88-3.75-.47-7.48-1.11-11.24-1.61-1.54-.21-2.84-.22-4.12-1.14.37-1.5 1.68-2.98 2.57-4.17 2.02-2.7 4.37-5.47 7.06-7.55 6.81-5.26 16.72-4.35 24.77-3.99 1.83.08 26.43 1.4 23.11-5.46-.5-1.04-2.46-1.73-3.35-2.28-4.33-2.63-8.34-5.88-12.35-8.95-5.17-3.95-10.51-7.55-15.81-11.3-6.75-4.77-11.94-9.97-16.05-17.11-1.44-2.49-2.65-6.42-2.01-9.42 9.11 4.11 16.92 11.39 24.69 17.51 6.88 5.42 15.07 9.28 21.4 15.35C61.15 80.7 64.62 85.2 69 88.63c.87-1.09 2.2-2.3 2.74-3.7 1.5-3.86.44-10.47.16-14.27-.43-5.99-1.05-11.89-.92-17.91.2-9.89 1.82-19.65 6.16-28.62 2.59-5.37 5.91-10.64 9.42-15.48 1.58-2.18 4.88-7.39 8.41-5.89 1.89.8 2.03 1.93 2.11 3.79-.2 1.89-.59 3.75-1.16 5.58-.7 3.67-1.53 7.3-2.49 10.91-1.09 4.25-2.29 8.47-3.34 12.73-1.91 7.69-2.53 16.09-2.86 24.01-.11 2.63-.65 5.22-.74 7.83-.06 1.7.42 3.35.4 5.05-.02 1.38-.32 2.09.23 3.45.23.56.92 1.17 1.14 1.72.1.25.91-1.83 1.02-2.34.23-1.1 1.05-2.07 1.75-2.92 1.4-1.73 3.05-3.28 4.74-4.71m-23.79 83.88c-4.09.65-4.73 1.07-4.54 4.49.26 4.78-.2 9.35.72 13.99 1.4 7.1-.85 16.22-2.58 23.68-.74 3.45-1.67 6.88-2.78 10.27-2.17 5.93-5.85 11.16-9.17 16.52-6.54 10.54-13.14 20.06-21.9 28.74-3.94 3.91-8.39 8.39-10.74 13.66-1.23 2.76-1.38 7.07.73 8.96 2.17 1.95 6.49-.06 9.18-1 4.41-1.53 8.68-5.36 11.35-9.68 3.26-5.28 7.19-10.04 10.44-15.36 5.64-9.25 12.27-18.36 17.1-28.05 1.3-2.95 2.66-5.87 4.08-8.77 1.81-3.89 2.5-7.51 3.54-11.62 2.26-8.95 3.45-17.87 5.23-26.85.63-3.15 1.17-7.12 1.05-10.21-.05-1.39-.4-2.85-.59-4.6.52-.7-7.02-4.84-11.11-4.19m164.42 159.31c-2.3-12.03 1.36-24.69 5.44-35.91 4.66-12.81 12.63-29.35 18.42-35.76.85.86 1.82 3.66 1.46 5.38.52 4.26.87 8.54 1.05 12.83.27 10.42-.05 21.03-.8 31.42-.62 8.59-1.24 17.28-2.77 25.77-.41 2.29-2.99 11.33-2.6 13.69.94.18 4.33-1.81 5.99-3.29 6.01-5.36 13.59-24.31 17.33-28.86 6.12-7.43 12.73-15.77 20.41-21.63 4.55-3.47 9.84-5.73 14.81-8.5 4.92-2.74 9.72-4.4 15.04-6.19 5.58-1.88 10.84-3.79 16.62-4.95 1.21-.24 3.51-1.19 4.55-.05-1.57 2.05-2.82 4.77-4.04 6.9-5.23 9.17-11.15 17.94-16.88 26.8-2.04 3.13-4.08 6.27-6.13 9.4a63.081 63.081 0 0 1-12.99 13.66c-5.08 4.51-9.91 9.4-15.11 13.77-4.64 3.91-9.76 6.97-14.9 10.16-3.78 2.34-7.45 4.78-11.5 6.64-2.29 1.05-5.17 2.38-7.73 1.92.45.13.95.5 1.51.67 2.61.79 6.44.65 9.03.87 3.49.3 6.84 1 10.31 1.38 4.38.48 8.75 1 12.75 2.97 2.01.98 3.74 1.69 5.83 2.46 1.38.5 3.31 1.26 4.13 2.61-1.1 2.72-5.59 5.52-7.77 7.12-4.01 2.93-7.82 4.14-12.7 4.72-8.19.98-16.67-1.68-24.38-4.11-2.81-.89-5.68-.29-8.08 1.45-2.49 1.81-3.68 6.18-4.51 8.93-2.12 7.04-3.74 14.23-4.96 21.49-.47 2.83-.48 5.39-2.22 7.72-2.26 3.03-4.66 5.96-6.95 8.98-.94 1.24-1.59 2.36-3.02 3.02-1.13-1.06-1.77-2.93-2.36-4.29-1.36-3.09-2.6-6.5-3.08-9.87-1.22-8.52 4.47-16.69 8.75-23.51.98-1.55 14.26-22.3 6.65-22.79-1.15-.07-2.72 1.28-3.63 1.79-4.42 2.47-9.23 4.36-13.88 6.33-5.99 2.55-11.75 5.42-17.63 8.18-7.48 3.52-14.56 5.47-22.8 5.52-2.88.02-6.89-.87-9.18-2.89 8.07-5.9 18.25-9.1 27.41-12.84 8.11-3.31 15.94-7.37 23.91-11.04 4.8-2.21 6.48-3.27 11.62-5.39 1.59-1.26 3.53-2.17 2.58-3.33-2.62-3.21-8.89-5.54-12.33-7.18-5.43-2.58-10.86-4.95-16.03-8.03-8.5-5.06-16.19-11.28-21.86-19.47-3.39-4.9-6.34-10.39-8.82-15.83-1.12-2.45-4.02-7.89-.98-10.22 1.63-1.25 2.68-.81 4.34.04 1.55 1.11 2.98 2.36 4.28 3.76 2.84 2.42 5.6 4.93 8.27 7.55 3.16 3.04 6.24 6.17 9.42 9.19 5.75 5.45 12.75 10.13 19.48 14.33 2.23 1.39 4.22 3.14 6.44 4.51 1.44.89 15.64 12.66 16.23 12.74.27.03-5.31-7.45-5.71-7.8-.84-.74-3.57-5.43-3.98-6.45-.81-2.07-1.35-4.27-1.76-6.44"
    class="cls-2" />
  <path
    d="M275.88 375.74c4.05.85 4.67 1.31 4.31 4.71-.5 4.76-.27 9.34-1.42 13.93-1.76 7.02.03 16.25 1.38 23.78.57 3.48 1.32 6.95 2.26 10.4 1.87 6.03 5.28 11.44 8.33 16.96 6 10.86 12.11 20.7 20.42 29.81 3.74 4.1 7.96 8.81 10.03 14.18 1.09 2.82 1.02 7.13-1.18 8.91-2.26 1.84-6.48-.39-9.12-1.46-4.33-1.75-8.4-5.79-10.84-10.24-2.99-5.44-6.68-10.39-9.65-15.87-5.17-9.52-11.32-18.96-15.66-28.87-1.15-3.01-2.36-6-3.64-8.96-1.61-3.98-2.12-7.63-2.95-11.78-1.8-9.05-2.54-18.02-3.87-27.08-.47-3.17-.81-7.17-.54-10.25.12-1.39.54-2.83.83-4.56-.48-.73 7.26-4.47 11.31-3.62M159.21 229.86c-.43 2.73-3.05 10.59-3.09 10.92-.1.81-1.34 3.75-1.5 4.42-.16.67-.34.51-.71 1.86-.36 1.35-1.42 4.72-1.66 4.95-.23.24-.05 2.87-2.94-5.63-2.88-8.5-2.77-8.19-4.12-11.16-1.35-2.97-2.89-4.61-3-4.9.51-.24 4.13-5.23 5.23-6.02.96-.69 3.89-5.14 8.61-4.37 4.71.77 4.07 5.08 3.17 9.93m5.51-12.95c-.75-1.02-1.69-1.93-2.61-2.86-.73-.74-.98-.57-1.92-.94s-1.61-.5-2.61-.67c-1.39-.24-2.59-.3-3.96.19-1.39.5-2.91.91-4.24 1.54-3.29 1.55-6.41 3.74-9.03 6.29-1.26 1.22-2.69 2.5-3.71 3.93-.72 1.01-2.69 3.42-3.12 3.67-.35.2-1.23.29-1.67.37-.56.1-2.23.47-2.48.6-.44.23-.95.29-1.39.55-.54.32-1.16.54-1.65.94-.99.81-2.1 1.35-2.99 2.25-.65.65-3.75 3.12-4.6 3.91-.85.79-1.92 1.39-2.79 2.19-.54.49-1.1.79-1.68 1.21-.62.45-1.03 1.05-1.69 1.46-2.22 1.39-4.08 3.02-6.22 4.51-.93.65-1.71 1.25-2.55 2.01-.69.62-1.57.9-2.28 1.51-1.63 1.42-3.35 2.68-4.95 4.13-1.43 1.29-2.85 2.3-4.36 3.5-1.12.89-11.02 9.61-11.33 9.87-.62.52-1.34 1.02-1.88 1.71-.49.62-1 1.26-1.53 1.84-.82.89-1.72 1.77-2.39 2.83-.72 1.15-1.79 1.73-2.62 2.75-.49.61-.97 1.3-1.37 1.99-1.01 1.72-2.08 3.75-1.41 5.79.28.87.61 1.75.94 2.6.39.99 1.31 1.58 1.88 2.45 1.02 1.56 2.08 2.53 3.62 3.55.65.43 4.79 3.63 5.03 3.79.31.2.57.42.87.66.68.57 1.28 1.2 1.93 1.78.65.58 1.46 1.02 2.18 1.48 1.06.67 2.1 1.31 3.16 1.95 1.49.9 3.23 1.82 4.76 2.8 1.81 1.16 3.91 1.3 5.88 1.93 2.72.87 5.48 1.37 8.2 2.24.81.26 1.62.39 2.49.44.68.04 1.38-.08 2.05-.01 1.35.14 2.54.52 3.91.47.79-.03 1.63.14 2.41.26.81.13 1.43.03 2.23-.14.68-.14 1.33-.16 2.02-.23.8-.08 1.5-.39 2.33-.42 3.1-.13 5.91-1.22 8.8-2.27 1.42-.52 2.94-.93 4.29-1.6 1.5-.75 8.88-5.93 9.69-7 2.16-2.85 2.98-4.4 3.52-5.2 1.85-2.74 1.7-2.42 2.27-3.75 1.48-3.4 1.1-3.06 1.38-4.67.32-1.84.87-3.54.91-5.44.03-1.2.21-2.38.28-3.58.08-1.51-.99-10.92-.65-11.44.34-.52 1.62-2.44 1.87-3.11.92-2.55 2.12-5.02 3.15-7.49.35-.83.76-1.63 1.09-2.47.31-.79 1.99-6.59 2.64-8.65.27-.86.36-1.96.48-2.87.11-.77.19-1.56.34-2.33.37-1.81.93-3.58 1.18-5.43.29-2.08.62-4.25.58-6.34-.02-.84-.48-3.84-.69-4.43-.58-1.58-1-3.25-1.99-4.61m266.41-114.43c-.36-2.74-.06-11.02-.11-11.35-.13-.8.23-3.97.2-4.66-.04-.69.18-.59.15-1.99s.04-4.93.2-5.22c.16-.29-.76-2.77 4.41 4.58 5.16 7.35 4.97 7.08 7.1 9.55 2.13 2.47 4.08 3.61 4.26 3.85-.42.37-2.49 6.18-3.32 7.26-.73.94-2.29 6.03-7.02 6.62-4.74.59-5.34-3.73-5.84-8.63m-1.65 13.96c1.01.77 2.17 1.38 3.31 2 .91.5 1.11.27 2.11.36 1.01.09 1.69.02 2.69-.1 1.41-.16 2.57-.45 3.75-1.3 1.2-.87 2.53-1.69 3.64-2.67 2.72-2.41 5.1-5.4 6.89-8.58.86-1.53 1.87-3.16 2.45-4.82.41-1.17 1.61-4.04 1.96-4.4.28-.29 1.1-.63 1.5-.82.51-.25 2.01-1.08 2.21-1.27.36-.35.83-.55 1.18-.92.43-.46.96-.84 1.32-1.37.72-1.06 1.63-1.89 2.23-3 .44-.81 2.71-4.05 3.31-5.05.6-1 1.45-1.87 2.06-2.88.38-.62.84-1.07 1.27-1.64.46-.61.69-1.3 1.21-1.88 1.74-1.96 3.07-4.05 4.7-6.08.71-.88 1.29-1.69 1.88-2.65.48-.79 1.26-1.3 1.76-2.09 1.17-1.82 2.46-3.52 3.59-5.36 1-1.64 2.09-3.01 3.19-4.59.82-1.17 7.86-12.33 8.09-12.67.45-.67 1-1.36 1.32-2.17.3-.74.6-1.49.94-2.2.53-1.09 1.15-2.19 1.49-3.39.37-1.3 1.22-2.17 1.73-3.38.3-.72.56-1.52.75-2.3.49-1.93.94-4.19-.28-5.95-.52-.76-1.08-1.51-1.64-2.23-.66-.84-1.7-1.14-2.5-1.82-1.42-1.2-2.71-1.84-4.48-2.39-.74-.23-5.62-2.13-5.9-2.22-.35-.11-.67-.24-1.02-.39-.81-.35-1.57-.79-2.35-1.16-.78-.37-1.69-.57-2.51-.8-1.2-.34-2.39-.67-3.58-.98-1.69-.44-3.61-.84-5.36-1.34-2.07-.6-4.12-.15-6.18-.2-2.85-.07-5.64.23-8.5.16-.85-.02-1.66.08-2.51.28-.66.15-1.3.47-1.96.59-1.33.24-2.59.22-3.88.65-.75.25-1.6.32-2.39.43-.81.11-1.38.37-2.1.76-.62.33-1.23.53-1.87.79-.75.31-1.33.8-2.12 1.06-2.94 1-5.33 2.84-7.81 4.66-1.21.89-2.56 1.72-3.66 2.75-1.22 1.14-6.85 8.19-7.33 9.45-1.27 3.35-1.62 5.06-1.91 5.98-1 3.15-.94 2.8-1.12 4.24-.46 3.68-.2 3.25-.01 4.87.21 1.86.17 3.64.66 5.48.31 1.16.47 2.35.75 3.51.35 1.47 4.03 10.2 3.85 10.8-.18.6-.87 2.8-.91 3.51-.16 2.71-.62 5.41-.91 8.08-.1.89-.27 1.78-.35 2.68-.07.84-.05 6.88-.1 9.05-.02.9.21 1.98.34 2.89.12.77.26 1.55.33 2.33.15 1.84.12 3.7.4 5.54.31 2.08.61 4.25 1.23 6.24.25.8 1.54 3.55 1.91 4.05 1 1.35 1.88 2.84 3.21 3.86"
    class="cls-2" />
</svg>