<svg xmlns="http://www.w3.org/2000/svg" id="Layer_2" viewBox="0 0 198.74 206.76">
  <defs>
    <clipPath id="clippath">
      <path fill="none" d="M0 0h198.74v206.76H0z" />
    </clipPath>
    <style>
      .cls-1 {
        fill: #ababd0
      }
    </style>
  </defs>
  <g id="Ebene_1" clip-path="url(#clippath)">
    <path fill="#fadce2"
      d="M179.01 116.68c-3.1 3.52-14.05 12.4-14.41 12.84-.89 1.06-5.35 4.15-6.2 4.96-.84.82-.96.42-2.71 2.03-1.75 1.61-6.35 5.46-6.9 5.59s-2.7 4.07.93-10.76c3.63-14.83 3.51-14.28 4.29-19.77.78-5.49.06-9.26.18-9.76.94.12 10.7-3.73 13.01-3.86 2.01-.12 10.28-3.82 16.34 1.59 6.06 5.41 1.19 11.01-4.53 17.14m19.71-13.55c-.14-2.15-.66-4.32-1.13-6.48-.38-1.73-.89-1.72-1.9-3.11-1.01-1.39-1.86-2.18-3.14-3.34-1.78-1.62-3.45-2.79-5.86-3.35-2.45-.56-5-1.35-7.49-1.67-6.13-.78-12.62-.49-18.7.77-2.92.61-6.15 1.14-8.91 2.24-1.96.78-6.98 2.44-7.83 2.4-.68-.03-2.03-.71-2.73-1-.89-.37-3.63-1.37-4.1-1.41-.85-.08-1.63-.46-2.49-.49-1.07-.04-2.15-.29-3.23-.16-2.15.26-4.25.03-6.34.49-1.53.34-8.22 1.05-10.17 1.41-1.95.35-4.02.24-6 .59-1.22.21-2.31.13-3.52.21-1.3.09-2.44.57-3.76.56-4.46-.03-8.61.6-13.04.78-1.92.08-3.6.24-5.49.56-1.55.26-3.07-.15-4.65.08-3.64.54-7.26.78-10.88 1.4-3.22.55-6.18.69-9.45 1.04-2.42.26-24.59 3.71-25.27 3.8-1.36.18-2.85.24-4.25.73-1.27.45-2.59.9-3.87 1.25-1.99.54-4.09.97-6.01 1.88-2.09.98-4.15.85-6.27 1.56-1.26.42-2.58.99-3.79 1.6-3.02 1.54-6.41 3.49-7.32 7.01-.39 1.51-.73 3.07-1.03 4.6-.35 1.78.44 3.46.46 5.24.04 3.16.67 5.54 1.95 8.4.54 1.21 3.56 9.58 3.76 10.03.26.57.44 1.12.64 1.75.46 1.44.74 2.89 1.14 4.31.4 1.42 1.16 2.8 1.78 4.12.91 1.92 1.81 3.81 2.75 5.68 1.32 2.65 2.96 5.57 4.27 8.37 1.54 3.32 4.42 5.45 6.66 8.15 3.1 3.73 6.6 6.97 9.71 10.7.93 1.11 1.96 2.04 3.16 2.91.94.68 2.05 1.14 2.95 1.85 1.8 1.44 3.18 3.07 5.18 4.24 1.17.68 2.21 1.69 3.21 2.58 1.05.93 2.02 1.34 3.33 1.84 1.11.42 2.05.98 3.11 1.51 1.23.62 2.51.81 3.73 1.52 4.57 2.65 9.59 3.65 14.7 4.79 2.5.56 5.07 1.36 7.61 1.62 2.83.29 18.15-.38 20.3-1.18 5.71-2.11 8.3-3.59 9.81-4.24 5.15-2.25 4.65-1.92 6.69-3.3 5.23-3.53 4.38-3.38 6.25-5.43 2.14-2.34 4.48-4.28 6.27-6.97 1.14-1.7 2.48-3.22 3.67-4.89 1.49-2.1 8.56-16.57 9.53-17 .97-.43 4.56-2.02 5.52-2.76 3.65-2.82 7.63-5.26 11.37-7.86 1.25-.87 2.58-1.65 3.82-2.55 1.16-.85 8.88-7.64 11.7-9.99 1.18-.99 2.31-2.48 3.32-3.67.86-1.01 1.7-2.07 2.62-3.03 2.19-2.26 4.6-4.29 6.65-6.71 2.31-2.72 4.77-5.53 6.62-8.56.74-1.22 2.83-5.95 3.05-6.98.62-2.79 1.53-5.58 1.35-8.43" />
    <path
      d="M85.47 86.11c.68-3.02 1.53-6 2.16-9.03.52-2.51.84-5.08 1.51-7.56.75-2.76 1.78-5.52 2.67-8.25.49-1.48 1.21-2.81 1.77-4.24.34-.88.28-1.77 1.17-2.22.6-.3 1.42-.15 2.06-.33 1.26-.37 2.36-.88 3.68-1.04 2.32-.29 4.57.83 5.06 3.35.58 3.04-.6 5.99-1.46 8.83-.72 2.41-1.75 4.81-2.38 7.23-.67 2.63-.8 5.5-1.15 8.19-.25 1.92-2.78 12.15-3.94 15.22-.83 1.63-3.86 17.36-4.62 20.55-1.64 6.91-4.42 13.54-6.25 20.4-.88 3.31-1.96 7.56-5.84 8.4-8.86 1.9-4.46-14.24-3.43-18.15 1.78-6.74 8.51-39.23 8.99-41.34"
      class="cls-1" />
    <path
      d="M74.79 99.81c-1.32-4.56-2.15-9.07-4.89-13.07-2.55-3.72-6.54-8.1-10.59-10.15-7.74-3.91-16.12-6.12-24.79-6.73-2.72-.19-6.84-.79-7.33 2.64-.58 4.02 1.51 8.5 2.94 12.11 4.54 11.48 12.33 21.32 21.86 29.05 4.37 3.55 9.34 6.35 13.89 9.66 2.92 2.12 6.28 2.83 9.3 4.71.91.57 6.88 3.6 7.79 2.08.61-1.01-1.32-3.27-2.25-3.78.73-9.19-3.49-18.1-5.93-26.52M51.38 13.88c.05 2.08.72 4.21 1.04 6.26.4 2.59.74 5.17 1.52 7.68.99 3.16 2.57 6.14 3.94 9.15 1.53 3.35 3.08 6.63 4.86 9.86 2.8 5.06 6.07 10.08 10.23 14.16 1.79 1.76 3.96 2.91 6.1 4.18 2.76 1.65 5.48 3.27 8.41 4.62 5.46 2.51 11.74 3.89 17.76 2.83 6.39-1.12 12.89-4.82 18.49-8.04 4.33-2.5 8.42-5.71 12.07-9.12 2.75-2.56 5.52-5.64 7.33-8.96 1.88-3.43 2.58-7.44 3.56-11.19.9-3.45 1.5-6.94 1.8-10.5.3-3.58 1.25-7.4-.25-10.83-2.57-5.88-8.56-8.42-14.36-5.45-3.88 1.98-7.17 5-10.17 8.05.28-2.04.79-4.45-.11-6.38-1.41-3.04-4.23-3.36-7.19-3.62-2.11-.19-3.48.79-5.18 1.93-1.38.93-3.07 1.81-4.28 2.95-1.05.99-2.25 2.57-2.98 3.82-.48.82-.57 1.8-1.06 2.58-.51-1.23-.48-2.72-.89-3.99-1.13-3.47-4.54-6.53-7.21-8.85C90.65 1.42 83.95-1.56 78.52.9c-1.83.83-3.27 1.92-4.42 3.57-.96 1.37-1.05 2.45-1.18 4.06-.14 1.77-.12 3.68-.49 5.41-1.51-3.72-3.9-6.24-6.83-8.87-2.17-1.95-5.49-3.78-8.56-3.26-1.3.22-1.8.92-2.65 1.73-.32.28-.97 1.38-1.21 1.7-.99 1.34-1.21 1.91-1.4 3.91-.15 1.76-.43 3.25-.4 4.72"
      class="cls-1" />
  </g>
</svg>