<svg xmlns="http://www.w3.org/2000/svg" id="Layer_2" viewBox="0 0 253.99 272.53">
  <defs>
    <clipPath id="clippath">
      <path fill="none" d="M0 0h253.99v272.53H0z" />
    </clipPath>
    <style>
      .cls-3 {
        fill: #a8a7ce
      }
    </style>
  </defs>
  <g id="Ebene_1" clip-path="url(#clippath)">
    <path
      d="M144.78 101.77c-2.09-6.29-8.01-9.48-14.27-6.97-4.18 1.67-7.85 4.47-11.23 7.33.48-2.08 1.24-4.5.49-6.58-1.17-3.26-4.04-3.86-7.06-4.41-2.16-.4-3.66.48-5.52 1.5-1.51.82-3.33 1.57-4.69 2.63-1.18.92-2.56 2.44-3.43 3.65-.57.8-.76 1.8-1.33 2.56-.41-1.31-.24-2.85-.54-4.2-.83-3.68-4.05-7.16-6.59-9.79-3.94-4.1-10.56-7.8-16.39-5.78-1.96.68-3.55 1.67-4.89 3.26-1.12 1.32-1.31 2.42-1.6 4.07-.31 1.8-.48 3.78-1.02 5.52-1.2-3.97-3.42-6.8-6.19-9.78-2.05-2.21-5.29-4.41-8.51-4.16-1.36.11-1.94.78-2.89 1.53-.36.26-1.12 1.32-1.4 1.64-1.14 1.28-1.42 1.85-1.81 3.9-.32 1.8-.75 3.31-.86 4.83-.15 2.15.34 4.41.47 6.55.17 2.7.27 5.4.84 8.05.72 3.35 2.07 6.57 3.19 9.79 1.26 3.6 2.54 7.12 4.08 10.61 2.41 5.48 5.3 10.96 9.2 15.55 1.68 1.98 3.8 3.37 5.88 4.89 2.69 1.96 5.33 3.89 8.22 5.55.47.27.99.48 1.47.74-.76 2.23-1.33 4.53-2.01 6.78-.93 3.06-2.09 6.05-3.08 9.1-.47 1.44-5.2 16.94-8.98 28.91-.86-5.38-2.33-10.71-3.32-15.81-.93-4.82-1.35-9.54-3.8-13.92-2.27-4.07-5.97-8.96-9.95-11.46-7.6-4.76-16.02-7.83-24.89-9.28-2.79-.46-6.97-1.46-7.8 2.02-.98 4.09.75 8.89 1.88 12.75 3.59 12.25 10.68 23.12 19.76 31.99 4.17 4.07 9.01 7.42 13.39 11.26 2.8 2.46 6.2 3.51 9.13 5.73.15.12.6.39.99.65-1.85 5.13-6.43 18.93 2.22 17.89 4.08-.49 5.59-4.77 6.81-8.1 2.53-6.89 6.02-13.45 8.36-20.41 1.08-3.21 5.69-19.13 6.7-20.73 1.48-3.05 5.05-13.34 5.49-15.3.61-2.71 1.02-5.64 1.95-8.27 1.22.08 2.45.15 3.67.05 6.69-.55 13.73-3.74 19.8-6.53 4.7-2.16 9.21-5.08 13.29-8.25 3.08-2.38 6.22-5.29 8.4-8.53 2.26-3.36 3.81-6.99 5.17-10.76 1.26-3.47 2.33-7.24 2.97-10.87.64-3.66 1.41-7.71.19-11.38"
      class="cls-3" />
    <path fill="none" stroke="#a8a7ce" stroke-linecap="round" stroke-width="5.99"
      d="M145.45 197.91c-2.47 2.8-11.18 9.86-11.47 10.21-.71.84-12.15 9.9-12.58 10-.44.1-2.15 3.24.74-8.56 2.89-11.79 3.46-23.08 3.55-23.48 1.51-1.92 10.35-3.07 10.35-3.07 1.6-.09 11.24-.42 13.01 1.27 4.67 4.47.95 8.75-3.6 13.63Zm15.68-10.77c-.11-1.71-.53-3.44-.9-5.15-.3-1.38-.71-1.37-1.51-2.48-.8-1.11-1.48-1.74-2.5-2.66-1.42-1.28-2.74-2.22-4.67-2.66-1.95-.45-3.98-1.08-5.96-1.33-4.88-.62-10.04-.39-14.89.61-2.32.48-4.89.9-7.09 1.78-1.56.62-5.55 1.94-6.23 1.91-.54-.03-1.62-.57-2.17-.8-.71-.29-2.89-1.09-3.26-1.12-.67-.06-1.3-.36-1.99-.39-.85-.03-1.71-.23-2.57-.12-1.71.21-3.38.02-5.05.39-1.22.27-6.55.84-8.09 1.12-1.55.28-3.2.19-4.78.47-.97.17-4.74.62-5.79.61-3.55-.03-17.2.94-18.46 1.13-2.9.43-5.78.62-8.66 1.11-2.57.43-4.92.55-7.52.82-1.92.2-19.57 2.95-20.12 3.02-1.08.14-2.27.19-3.38.58-1.01.36-2.06.71-3.08.99-1.58.43-3.25.77-4.78 1.49-1.66.78-3.3.68-4.99 1.24-1 .33-2.05.79-3.01 1.28-2.4 1.22-5.1 2.77-5.82 5.57-.31 1.2-.58 2.44-.82 3.65-.28 1.42.9 8.57 1.92 10.85.43.96 2.83 7.62 2.99 7.98.2.45 4.28 11.11 5.02 12.61 1.05 2.11 6.92 10.99 8.7 13.13 2.47 2.97 5.25 5.55 7.73 8.51.74.88 7.39 6.23 8.99 7.16.93.54 18.29 8.83 22.35 9.74 1.99.44 4.03 1.08 6.06 1.29 2.26.23 14.45-.3 16.16-.93 4.54-1.68 6.61-2.85 7.8-3.37 4.1-1.78 8.81-5.31 10.3-6.94 1.7-1.86 6.97-8.11 7.91-9.43 1.19-1.66 6.81-13.18 7.58-13.52.77-.34 10.47-6.38 13.44-8.45 1-.69 2.06-1.31 3.04-2.03.92-.67 7.06-6.07 9.31-7.94.94-.79 3.99-4.57 4.72-5.33 1.74-1.79 3.66-3.41 5.3-5.33 1.84-2.17 3.79-4.4 5.26-6.81.59-.97 2.25-4.73 2.43-5.55.49-2.22 1.22-4.44 1.07-6.71Z" />
    <path
      d="M224.5 231.28a2.24 2.24 0 0 0-2.92 1.25c-.47 1.16.09 2.45 1.24 2.92a2.24 2.24 0 0 0 2.92-1.25c.47-1.16-.09-2.45-1.24-2.92m11.85-8.37-.84 2.53-9.86-3.27-1.07 3.23 9.86 3.27-1.04 3.13 2.91.96 1.04-3.13 2.96.98c1.59.53 1.59 1.69 1.39 2.31-.27.81-.81 1.17-.81 1.17l2.32 2.11s1.02-.83 1.61-2.61c.69-2.07.28-4.99-3.28-6.17l-3.13-1.04.84-2.53-2.91-.96Zm-7.87-12.43c-.64 2.68 1.3 4.45 1.3 4.45l-1.9-.45-.74 3.09 13.09 3.11.79-3.31-8.73-2.08s-1.39-1.26-.98-2.98c.4-1.68 1.45-2.4 3.38-1.94l7.57 1.8.79-3.31-8.48-2.02c-3.15-.75-5.49 1.12-6.09 3.63m16.61-12.28c.38-2.79-.49-5.43-.49-5.43l-2.93.72s.7 2.19.44 4.13c-.16 1.18-.96 2.79-2.7 2.55l-.76-.1s1.13-1.13 1.46-3.58c.4-2.9-1.14-5.49-3.7-5.84-2.84-.39-4.79 1.7-5.13 4.2-.41 3.01 1.43 4.66 1.43 4.66l-1.69-.23-.43 3.12 8.69 1.19c3.04.41 5.29-1.57 5.81-5.4m-11.15-1.91c.14-1.04.64-2.38 2.05-2.18 1.43.2 1.69 1.69 1.55 2.73-.25 1.83-1.09 2.95-1.09 2.95l-1.38-.19s-1.4-1.28-1.12-3.3m9.21-26.9.02 2.64-5.96.05c-2.87.03-4.75 2.03-4.73 4.64.02 1.96.91 3.23.91 3.23l2.77-1.27s-.49-.65-.5-1.41c0-.91.47-1.76 2.11-1.78l5.42-.05.04 4.06 3.07-.03-.04-4.06 4-.04-.03-3.41-4 .04-.02-2.64-3.07.03Zm-10.82-6.03.23 3.4 21.41-1.48-.23-3.4-21.41 1.48Zm6.38-14c1.2-.05 2.85.71 3.16 2.88.31 2.22-1.08 3.51-2.23 3.73l-.93-6.61Zm6.23 2.45c-.54-3.85-4.04-6.25-7.95-5.7-3.91.55-6.56 4.11-5.99 8.16.46 3.23 2.67 5.07 2.67 5.07l2.29-2.04s-1.54-1.13-1.87-3.46c-.3-2.11 1.03-3.7 2.17-4.12l1.41 9.95c.51-.04 1.02-.12 1.27-.15 4.11-.58 6.51-4.05 6-7.7m5.09-9.84-.95-3.42-12.65-.96 10.3-7.46-.75-2.71-12.7-1.15 10.36-7.25-1.04-3.72-17.7 13.06 15.98 1.83-12.76 9.74 21.9 2.03Zm-27.85-42.39c1.12-.43 2.93-.23 3.91 1.73 1 2.01.09 3.67-.93 4.24l-2.99-5.97Zm6.68.34c-1.74-3.48-5.82-4.65-9.35-2.88-3.53 1.77-4.91 5.98-3.08 9.64 1.46 2.92 4.14 3.96 4.14 3.96l1.52-2.67s-1.82-.58-2.87-2.69c-.95-1.9-.2-3.83.75-4.6l4.5 8.99c.47-.2.93-.43 1.15-.55 3.71-1.85 4.89-5.91 3.23-9.21m-3.68-14.95c-1.07.64-1.42 2-.78 3.07.64 1.07 2 1.42 3.07.78 1.07-.64 1.42-2 .78-3.07-.64-1.07-2-1.42-3.07-.78m-15.02 9.58 1.74 2.93 11.56-6.89-1.74-2.93-11.56 6.88Zm-.32-9.23s-2.09.28-3.38-1.55c-1.32-1.88-.74-3.98 1.07-5.25s3.98-1.09 5.3.79c1.29 1.84.3 3.7.3 3.7l-3.3 2.31Zm15.68-6.81-1.95-2.79-7.72 5.41s.73-2.03-.74-4.13c-2-2.86-6.16-3.7-9.55-1.32-3.4 2.38-4.03 6.57-2.03 9.43 1.66 2.37 4.05 2.12 4.05 2.12l-1.44 1.01 1.81 2.58 17.58-12.31Zm-31.6-21.21 1.82 1.91-4.32 4.11c-2.08 1.98-2.09 4.73-.29 6.62 1.35 1.42 2.87 1.74 2.87 1.74l1.16-2.82s-.8-.14-1.33-.7c-.63-.66-.86-1.61.33-2.74l3.93-3.74 2.8 2.94 2.22-2.11-2.8-2.94 2.9-2.76-2.35-2.47-2.9 2.76-1.82-1.91-2.22 2.11Zm-3.78-8.09c-1.96-1.73-4.15-1.05-4.15-1.05l6.37-7.22-2.56-2.25-14.2 16.1 2.55 2.25 5.86-6.64s1.85-.72 3.17.44c1.11.98 1.46 2.38.18 3.83l-5.2 5.9 2.55 2.25 5.76-6.54c2.14-2.43 1.62-5.35-.34-7.08m-11.44-14.43c-.73 1.02-.5 2.4.52 3.13 1.01.73 2.4.5 3.13-.52.73-1.01.5-2.4-.52-3.13s-2.4-.5-3.13.52m-4.75-3.41c-.73 1.02-.5 2.4.52 3.13s2.4.5 3.13-.52.5-2.4-.52-3.13-2.4-.5-3.13.52m-7.4 17.16c2.24 1.6 4.62.48 4.62.48l-1.14 1.59 2.59 1.85 7.84-10.94-2.77-1.98-5.22 7.29s-1.7.81-3.13-.22c-1.41-1.01-1.67-2.25-.52-3.86l4.53-6.32-2.77-1.98-5.08 7.09c-1.88 2.63-1.04 5.5 1.06 7.01m-10.02-6.89 2.91 1.77 11.14-18.35-2.91-1.77-11.14 18.35Zm-7.71-14.08s1.71-1.23 3.71-.22c2.05 1.04 2.53 3.16 1.53 5.14-1 1.98-3 2.84-5.05 1.8-2-1.02-2.01-3.12-2.01-3.12l1.83-3.59Zm-6.99 6.25 2.81 1.43.8-1.57s.09 2.4 2.67 3.71c3.11 1.58 7.17.36 9.05-3.33 1.88-3.7.47-7.69-2.65-9.27-2.28-1.16-4.19-.15-4.19-.15l4.27-8.4-3.04-1.54-9.72 19.14Zm-7.59-17.86c-2.37-.79-4.2 1.03-4.2 1.03l.62-1.86-3.07-1.02-4.23 12.77 3.23 1.07 2.77-8.35s1.46-1.43 3.43-.78c.94.31 1.44.81 1.44.81l2.1-2.54s-.92-.75-2.08-1.14m-13.96-8.39c-.32 1.21.39 2.42 1.6 2.74s2.42-.39 2.74-1.6-.39-2.42-1.6-2.74c-1.21-.32-2.42.39-2.74 1.6m-4.02 17.35 3.29.87L123 12.75l-3.29-.87-3.44 13.01Zm-6.68-6.4s-1.29 1.66-3.5 1.25c-2.26-.42-3.32-2.32-2.92-4.5s2.08-3.57 4.34-3.15c2.21.41 2.81 2.43 2.81 2.43l-.74 3.96Zm6.42-15.84-3.35-.62-1.73 9.27s-.9-1.96-3.42-2.43c-3.43-.64-6.98 1.67-7.74 5.75-.76 4.08 1.72 7.51 5.15 8.15 2.85.53 4.38-1.32 4.38-1.32l-.32 1.73 3.1.58 3.94-21.1ZM78.65 9.52l2.64.1-.23 5.96c-.11 2.86 1.8 4.84 4.41 4.95 1.96.08 3.27-.75 3.27-.75l-1.14-2.83s-.67.46-1.44.43c-.91-.04-1.74-.55-1.67-2.2l.21-5.42 4.06.16.12-3.06-4.06-.16.16-4-3.4-.13-.16 4-2.64-.1-.12 3.06Zm-7.59-7.23c.03 1.25 1.04 2.22 2.29 2.2s2.22-1.04 2.2-2.29A2.239 2.239 0 0 0 73.26 0a2.224 2.224 0 0 0-2.19 2.29m.9 17.79 3.41-.07-.28-13.45-3.41.07.28 13.45ZM45.96 2.74l2.55 19.71 3.38-.44-1.71-13.23 7.38 8.58 4.96-10.17 1.71 13.23 3.38-.44L65.05.27l-3.13.4-5.14 10.74-7.7-9.08-3.12.4Z"
      class="cls-3" />
  </g>
</svg>