<?xml version="1.0" standalone="no"?>
<!DOCTYPE svg PUBLIC "-//W3C//DTD SVG 20010904//EN"
 "http://www.w3.org/TR/2001/REC-SVG-20010904/DTD/svg10.dtd">
<svg version="1.0" xmlns="http://www.w3.org/2000/svg"
 width="828.000000pt" height="828.000000pt" viewBox="0 0 828.000000 828.000000"
 preserveAspectRatio="xMidYMid meet">
<metadata>
Created by potrace 1.14, written by Peter Selinger 2001-2017
</metadata>
<g transform="translate(0.000000,828.000000) scale(0.100000,-0.100000)"
fill="#000000" stroke="none">
<path d="M3398 8275 c-2 -3 -13 -6 -24 -8 -143 -28 -277 -162 -289 -289 -2
-24 -4 -43 -5 -43 -1 0 -3 -27 -5 -60 -5 -99 -8 -145 -11 -145 -1 0 -19 30
-40 67 -21 37 -41 72 -46 78 -205 251 -371 355 -532 331 -36 -6 -55 -17 -95
-57 -28 -28 -51 -57 -51 -65 0 -8 -4 -14 -10 -14 -5 0 -10 -7 -10 -15 0 -8 -4
-15 -8 -15 -12 0 -32 -69 -37 -128 -3 -26 -8 -67 -11 -92 -8 -60 -5 -142 8
-204 5 -28 11 -60 13 -71 2 -11 6 -30 9 -41 2 -12 7 -39 10 -60 4 -22 11 -66
17 -99 6 -33 12 -72 14 -86 11 -68 60 -197 141 -368 30 -62 54 -120 54 -127 0
-8 5 -14 10 -14 6 0 10 -5 10 -10 0 -15 121 -262 138 -282 8 -10 12 -18 9 -18
-8 0 167 -295 183 -310 4 -3 22 -27 41 -55 18 -27 36 -52 39 -55 3 -3 28 -32
55 -65 56 -67 165 -175 176 -175 4 0 14 -6 21 -13 32 -31 317 -195 456 -263
89 -43 93 -47 87 -72 -3 -15 -7 -38 -10 -52 -13 -69 -28 -147 -31 -165 -2 -11
-9 -46 -17 -77 -8 -32 -13 -58 -10 -58 2 0 -1 -8 -6 -17 -5 -10 -12 -31 -15
-48 -3 -16 -10 -48 -16 -70 -6 -22 -13 -51 -16 -65 -2 -14 -16 -77 -30 -140
-15 -63 -27 -121 -27 -127 0 -7 -5 -13 -11 -14 -6 0 -20 -2 -31 -4 -11 -3 -74
-6 -140 -9 -66 -2 -134 -7 -150 -9 -17 -3 -52 -8 -78 -11 -45 -5 -48 -4 -58
22 -35 87 -105 216 -151 277 -71 94 -229 251 -301 299 -71 46 -238 125 -342
162 -27 10 -56 22 -62 27 -7 5 -13 7 -13 3 0 -3 -12 -1 -27 5 -46 17 -189 56
-243 65 -19 3 -38 8 -42 10 -4 3 -26 7 -50 10 -24 2 -54 7 -68 11 -14 3 -36 7
-50 8 -14 1 -59 6 -100 11 -41 4 -120 8 -175 8 -112 1 -158 -16 -183 -68 -20
-41 -19 -153 3 -241 16 -65 65 -201 107 -295 11 -25 21 -49 22 -55 4 -19 80
-170 128 -254 26 -46 48 -87 48 -92 0 -4 4 -9 8 -11 15 -6 70 -105 58 -105 -6
0 -29 -4 -51 -7 -51 -9 -76 -13 -150 -22 -80 -9 -88 -10 -105 -17 -20 -7 -122
-40 -135 -43 -5 -2 -50 -14 -100 -29 -49 -14 -94 -27 -100 -28 -42 -12 -92
-31 -101 -39 -7 -5 -58 -18 -115 -29 -57 -11 -129 -29 -159 -40 -69 -26 -229
-106 -247 -125 -8 -8 -17 -14 -21 -14 -8 0 -58 -47 -89 -83 -70 -83 -112 -294
-89 -452 4 -27 9 -72 12 -100 9 -112 32 -208 58 -248 8 -12 14 -24 14 -27 -1
-3 18 -54 41 -115 24 -60 44 -117 46 -125 2 -8 16 -44 30 -80 38 -93 73 -200
99 -305 18 -71 47 -136 168 -380 216 -438 239 -475 369 -610 36 -38 82 -88
100 -110 39 -45 108 -120 192 -209 32 -34 82 -88 110 -121 85 -98 193 -202
229 -219 42 -20 129 -86 200 -151 31 -27 68 -58 84 -67 50 -30 67 -42 93 -68
57 -55 164 -122 201 -126 3 0 38 -17 79 -37 41 -21 82 -39 90 -40 9 -2 64 -27
124 -56 59 -29 113 -54 120 -55 6 -2 24 -8 39 -14 25 -10 124 -41 152 -47 6
-1 18 -5 26 -8 14 -5 177 -42 236 -53 43 -9 59 -12 59 -14 0 -1 7 -3 15 -5 8
-2 56 -12 105 -24 81 -18 113 -20 320 -15 127 2 255 6 287 9 262 19 301 25
393 65 41 18 66 27 75 28 3 0 37 16 75 35 107 53 184 88 190 88 2 0 47 19 98
43 123 57 305 184 347 241 8 11 69 77 137 148 67 70 130 141 140 157 9 17 21
30 25 30 4 0 8 4 8 10 0 5 35 56 78 112 85 114 81 107 153 245 47 90 73 139
164 308 69 129 96 172 121 196 14 13 26 22 27 20 3 -6 162 71 165 80 2 5 7 9
12 9 5 0 64 39 132 88 68 48 131 92 140 97 9 6 77 51 150 100 73 50 137 92
143 94 5 2 12 7 15 10 3 4 21 18 40 31 38 27 73 55 99 81 9 9 47 42 86 74 38
32 83 71 100 86 32 29 48 43 116 99 55 44 149 137 175 172 52 68 128 150 233
252 109 107 279 300 351 399 19 26 43 57 53 69 9 11 17 27 17 35 0 7 4 13 8
13 5 0 19 24 32 53 13 28 36 80 52 114 25 56 59 165 72 233 3 14 8 36 12 50
15 60 12 207 -7 305 -10 55 -22 114 -25 131 -3 17 -16 43 -28 56 -11 14 -32
41 -46 59 -84 115 -246 241 -339 265 -9 2 -45 11 -81 19 -36 9 -72 18 -80 22
-8 3 -22 7 -30 8 -8 1 -42 7 -75 13 -158 30 -509 34 -640 8 -11 -2 -40 -7 -65
-10 -25 -3 -56 -9 -70 -12 -14 -3 -36 -7 -50 -10 -148 -28 -206 -43 -335 -85
-82 -27 -158 -54 -167 -59 -10 -6 -29 -10 -43 -10 -14 0 -25 -5 -25 -12 0 -6
-2 -9 -6 -6 -3 3 -22 2 -42 -3 -37 -9 -57 -4 -130 28 -135 59 -254 85 -392 84
-125 0 -257 -8 -268 -15 -4 -2 -31 -7 -61 -11 -30 -4 -61 -8 -70 -10 -9 -1
-47 -6 -86 -9 -38 -4 -77 -9 -85 -11 -26 -8 -150 -23 -248 -30 -40 -3 -94 -8
-120 -10 -26 -3 -72 -8 -102 -10 -30 -2 -68 -7 -85 -10 -52 -9 -205 -15 -205
-7 0 4 10 45 21 92 11 47 21 93 24 103 2 10 7 27 10 37 3 10 8 29 10 42 3 13
9 46 15 73 5 28 12 73 14 100 7 74 23 196 26 205 2 3 2 9 1 13 -2 12 19 47 27
46 4 -1 9 0 12 1 3 1 25 3 50 5 38 3 78 9 125 19 131 29 348 122 555 239 25
14 68 37 95 52 66 36 259 165 263 176 2 5 8 9 13 9 6 0 21 10 34 23 13 12 41
36 62 52 138 109 383 366 383 404 0 6 4 11 8 11 8 0 84 141 88 164 2 6 12 35
22 64 11 28 18 52 16 52 -3 0 0 9 6 19 5 11 12 32 14 48 2 15 6 35 9 43 4 8 9
26 11 40 3 14 12 49 20 78 8 28 12 52 10 52 -2 0 1 11 6 26 6 14 12 38 15 55
8 45 14 82 19 104 5 27 18 130 22 180 2 22 6 60 9 85 4 25 8 92 10 150 5 115
-6 166 -51 255 -48 94 -187 204 -261 209 -13 0 -23 4 -23 7 0 9 -137 4 -175
-6 -108 -29 -260 -130 -407 -271 -43 -41 -79 -74 -81 -74 -2 0 -2 45 0 101 2
87 -1 107 -19 142 -39 78 -94 114 -203 133 -135 23 -169 13 -343 -101 -139
-91 -223 -185 -260 -293 -18 -53 -25 -45 -42 48 -21 118 -61 181 -202 323 -70
70 -132 127 -136 127 -5 0 -21 10 -36 23 -25 22 -158 92 -201 107 -80 28 -111
34 -191 36 -50 2 -93 1 -96 -1z m3920 -3882 c40 -8 78 -21 85 -28 7 -7 22 -15
33 -19 11 -3 37 -22 58 -41 21 -19 41 -35 45 -35 20 0 99 -169 86 -182 -2 -2
-6 -24 -8 -48 -7 -69 -48 -152 -117 -236 -14 -18 -36 -46 -49 -63 -25 -34
-242 -254 -306 -311 -22 -20 -69 -60 -104 -90 -36 -30 -72 -62 -81 -70 -9 -8
-35 -31 -59 -50 -58 -48 -119 -100 -151 -130 -36 -34 -94 -80 -160 -128 -30
-23 -62 -47 -70 -55 -8 -7 -35 -27 -60 -44 -25 -17 -56 -41 -70 -54 -14 -13
-50 -44 -80 -69 -29 -25 -70 -59 -89 -75 -57 -49 -104 -82 -127 -89 -19 -6
-21 -3 -18 31 2 43 11 106 19 143 4 14 8 35 11 48 18 91 44 204 49 212 3 4 7
25 11 46 3 22 10 47 15 57 5 9 8 17 5 17 -2 0 2 24 10 53 8 28 17 68 20 87 3
19 8 39 11 43 3 5 18 65 34 135 31 132 32 137 43 212 10 60 14 85 16 85 1 0 5
27 15 135 8 74 8 229 1 282 -4 33 7 43 54 53 19 4 41 11 50 16 65 36 488 151
503 137 2 -1 10 2 18 9 8 6 39 14 69 18 30 4 57 9 60 11 10 10 159 2 228 -13z"/>
</g>
</svg>
